<svg xmlns="http://www.w3.org/2000/svg" viewBox="0 0 200 90"><title>callAdvisor</title><g id="FLT_ART_WORK" data-name="FLT ART WORK"><path d="M137,84.15H62.28l.22-2c0-.2,0-.4.07-.6C64.82,63.85,74.8,54.1,90.66,54.1h.2V50.39a20.65,20.65,0,1,1,24.81-5.66h1.6a3.62,3.62,0,0,1,.67.07,22.5,22.5,0,1,0-40.8-13.07,23,23,0,0,0,.54,4.9c0,.25.11.49.18.73l.37,1.46-2.91.74-.13-.51c-2.77-.54-4.91-3.61-4.91-7.32s2.15-6.81,4.94-7.33a25.5,25.5,0,0,1,48.86,0c2.73.58,4.82,3.62,4.82,7.3s-2.08,6.71-4.81,7.3a25,25,0,0,1-3.81,7.69,3.11,3.11,0,0,1,.27,1.29,3.28,3.28,0,0,1-3.28,3.28h-8.84V54.1h.42c15.75,0,25.66,9.77,27.89,27.51l.06.6Z" style="fill:#fff"/><path d="M66.84,83.14h68c-2.18-15.43-10.46-23.72-24-24a12.06,12.06,0,0,1-19.78,0C77.4,59.41,69.05,67.7,66.84,83.14Z" style="fill:#00b624"/><polyline points="92.55 57.72 92.55 45.58 107.12 45.58 107.12 58.19" style="fill:#fff"/><polyline points="92.55 57.72 92.55 45.58 107.12 45.58 107.12 58.19" style="fill:none;stroke:#1a5336;stroke-miterlimit:10;stroke-width:3px"/><circle cx="99.84" cy="31.73" r="19.15" style="fill:#fff"/><circle cx="99.84" cy="31.73" r="19.15" style="fill:none;stroke:#1a5336;stroke-miterlimit:10;stroke-width:3px"/><path d="M95,33.22a1.93,1.93,0,1,1-1.93-1.93A1.92,1.92,0,0,1,95,33.22Z" style="fill:#1a5336"/><circle cx="106.59" cy="33.22" r="1.93" style="fill:#1a5336"/><path d="M109,19.29s-7.57,10.3-27.86,10.3a18.76,18.76,0,0,1,37.45,0C118.59,30,110.5,26.4,109,19.29Z" style="fill:#1a5336"/><path d="M135.53,82.64c0-.28-.06-.57-.1-.84-2.25-18-12.17-26.2-26.4-26.2a10.59,10.59,0,0,1-18.18,0c-14.21,0-24.3,8.07-26.61,26.15l-.09.89Z" style="fill:none;stroke:#1a5336;stroke-linecap:square;stroke-miterlimit:10;stroke-width:3px"/><path d="M76.59,37.73c-.07-.25-.13-.51-.19-.78a24.27,24.27,0,0,1-.57-5.22,24,24,0,1,1,41,17" style="fill:none;stroke:#1a5336;stroke-linecap:square;stroke-miterlimit:10;stroke-width:3px"/><path d="M123.32,24.31a4.48,4.48,0,0,0-.64.05,24,24,0,0,1,0,14.73,4.48,4.48,0,0,0,.64,0c3.18,0,5.77-3.32,5.77-7.41S126.5,24.31,123.32,24.31Z" style="fill:#1a5336"/><path d="M76.24,24.31a4.23,4.23,0,0,1,.63.05,24.16,24.16,0,0,0,0,14.73,4.23,4.23,0,0,1-.63,0c-3.18,0-5.77-3.32-5.77-7.41S73.06,24.31,76.24,24.31Z" style="fill:#1a5336"/><path d="M117.46,51.29h-9.18a3.28,3.28,0,0,1,0-6.56h9.18a3.28,3.28,0,0,1,0,6.56Z" style="fill:#1a5336"/></g></svg>