<svg xmlns="http://www.w3.org/2000/svg" viewBox="0 0 200 90"><title>phone</title><g id="FLT_ART_WORKS" data-name="FLT ART WORKS"><rect x="126.32" y="41.06" width="27" height="3" style="fill:#fff"/><rect x="124.51" y="27.46" width="27" height="3" transform="translate(4.01 72.89) rotate(-30)" style="fill:#fff"/><rect x="136.51" y="42.66" width="3" height="27" transform="translate(20.37 147.6) rotate(-60)" style="fill:#fff"/><rect x="79.5" y="6.39" width="41" height="77.55" rx="3.45" style="fill:#fff"/><path d="M84.45,10.75h34.1a.51.51,0,0,1,.51.51v3.23H83.94V11.26A.51.51,0,0,1,84.45,10.75Z" style="fill:#00b624"/><path d="M118.55,82.21H84.45a.51.51,0,0,1-.51-.51V74h35.12V81.7A.51.51,0,0,1,118.55,82.21Z" style="fill:#00b624"/><rect x="81" y="7.89" width="38" height="74.55" rx="1.95" style="fill:none;stroke:#1a5336;stroke-miterlimit:10;stroke-width:3px"/><line x1="81" y1="14.57" x2="119" y2="14.57" style="fill:none;stroke:#1a5336;stroke-miterlimit:10;stroke-width:3px"/><line x1="81" y1="71.25" x2="119" y2="71.25" style="fill:none;stroke:#1a5336;stroke-miterlimit:10;stroke-width:3px"/><rect x="95.26" y="75.28" width="9.48" height="2.81" style="fill:#1a5336"/><line x1="126.32" y1="42.56" x2="153.32" y2="42.56" style="fill:none;stroke:#1a5336;stroke-miterlimit:10;stroke-width:3px"/><line x1="126.32" y1="35.71" x2="149.7" y2="22.21" style="fill:none;stroke:#1a5336;stroke-miterlimit:10;stroke-width:3px"/><line x1="126.32" y1="49.41" x2="149.7" y2="62.91" style="fill:none;stroke:#1a5336;stroke-miterlimit:10;stroke-width:3px"/></g></svg>